<svg width="236" height="250" viewBox="0 0 236 250" fill="none" xmlns="http://www.w3.org/2000/svg">
<path d="M232.351 57.8734C228.52 52.2397 221.609 49.4467 212.887 50.012C205.16 50.5125 196.698 53.6491 189.063 58.8441C185.989 60.9345 183.157 63.2955 180.657 65.8302C185.784 54.6996 188.027 43.4872 187.161 32.9788C186.256 22.0063 181.943 12.1503 175.328 5.93853C168.697 -0.288397 160.605 -1.7108 154.711 2.31529C146.472 7.94401 147.028 15.9981 147.566 23.7878C148.08 31.2403 148.656 39.5921 143.483 50.2066C135.791 48.356 127.186 47.4159 117.828 47.4159C108.623 47.4159 100.154 48.326 92.5797 50.1168C87.4516 39.5422 88.0262 31.2159 88.5396 23.7853C89.078 15.9972 89.6347 7.94351 81.3946 2.31382C75.4191 -1.76487 67.5265 -0.38436 60.8004 5.91905C54.1948 12.1094 49.8774 21.9367 48.9556 32.8824C48.0673 43.4173 50.3067 54.6677 55.4501 65.8328C52.9504 63.2985 50.1191 60.9355 47.0454 58.8441C39.4092 53.6491 30.9479 50.5118 23.2201 50.0117C14.4996 49.4437 7.58829 52.2388 3.75755 57.8714C-0.0746632 63.5027 -0.133119 70.956 3.59291 78.8596C6.8961 85.866 12.9199 92.584 20.5536 97.775C27.8507 102.743 35.7359 105.766 43.0263 106.502C41.2957 117.44 41.051 129.806 42.2794 144.092C43.3725 156.795 45.9264 168.964 49.8687 180.3C48.5765 184.611 47.9223 189.489 47.9223 194.834C47.9223 224.926 68.3246 249.408 93.4021 249.408C102.288 249.408 110.727 246.426 118.054 240.737C125.381 246.426 133.82 249.408 142.706 249.408C167.783 249.408 188.186 224.926 188.186 194.834C188.186 189.532 187.544 184.698 186.278 180.433C190.199 169.079 192.746 156.865 193.845 144.092C195.051 130.063 194.77 117.464 193.022 106.519C200.311 105.799 208.214 102.77 215.553 97.777C223.189 92.5844 229.214 85.8663 232.516 78.8603C236.241 70.957 236.182 63.503 232.351 57.8734ZM157.867 23.077C157.319 15.1467 157.511 12.9088 160.536 10.8419C162.505 9.49649 165.837 11.1887 168.26 13.466C172.964 17.8833 176.184 25.4956 176.87 33.8274C177.633 43.0758 175.422 53.1296 170.471 63.2057C165.532 59.1234 159.837 55.8113 153.433 53.3089C159.093 40.8488 158.395 30.7273 157.867 23.077ZM59.2445 33.75C59.9445 25.441 63.1658 17.8536 67.8607 13.4539C70.2813 11.1854 73.6041 9.49938 75.5714 10.8409C78.5966 12.9078 78.7874 15.1447 78.2387 23.0731C77.7117 30.6952 77.0163 40.7763 82.6157 53.1795C76.1899 55.6613 70.4828 58.9551 65.5469 63.0202C60.6455 52.9777 58.468 42.9621 59.2445 33.75ZM45.1695 96.3158C39.363 95.989 32.5822 93.4743 26.3611 89.2383C20.3174 85.1291 15.4222 79.7408 12.9311 74.4564C10.8579 70.0581 10.625 66.1311 12.2934 63.6789C13.9604 61.2271 17.6986 60.0007 22.5518 60.3149C28.3807 60.6924 35.1909 63.2673 41.2359 67.3805C45.8752 70.537 49.7882 74.3826 52.5045 78.4077C49.4065 83.6981 46.951 89.6975 45.1695 96.3158ZM183.556 143.206C182.826 151.688 181.417 159.894 179.354 167.723C176.444 164.451 172.834 161.796 168.532 159.792C165.948 158.587 162.876 159.707 161.672 162.291C160.468 164.876 161.586 167.947 164.172 169.151C170.006 171.87 173.862 176.098 175.961 182.08C177.221 185.662 177.86 189.953 177.86 194.834C177.86 219.233 162.09 239.083 142.705 239.083C135.039 239.083 127.742 236.007 121.606 230.19C119.614 228.302 116.493 228.302 114.501 230.19C108.365 236.008 101.069 239.083 93.4018 239.083C74.0181 239.083 58.2472 219.233 58.2472 194.834C58.2472 189.96 58.889 185.666 60.149 182.069C60.1869 181.968 60.2271 181.869 60.2587 181.766C64.3384 170.594 74.8764 165.385 93.4011 165.385C97.4994 165.385 101.265 165.653 104.595 166.181C113.525 167.594 122.581 167.594 131.513 166.181C133.621 165.847 135.913 165.614 138.325 165.492C141.173 165.348 143.365 162.922 143.219 160.074C143.074 157.226 140.64 155.032 137.801 155.18C135.023 155.321 132.363 155.592 129.897 155.983C122.037 157.226 114.067 157.226 106.211 155.983C102.349 155.37 98.0394 155.059 93.4011 155.059C82.891 155.059 74.4647 156.596 67.6419 159.759C63.3314 161.758 59.712 164.408 56.7926 167.677C54.7109 159.853 53.2933 151.662 52.566 143.206C51.2075 127.414 51.7845 113.715 54.2839 102.482C56.0976 94.2807 58.9858 87.1509 62.8775 81.2752C64.3856 78.981 66.0813 76.8361 67.9295 74.889C73.9107 68.5414 81.8046 63.9024 91.3899 61.1004C99.0168 58.8713 107.912 57.7414 117.827 57.7414C127.885 57.7414 136.906 58.9039 144.637 61.1968C154.188 64.0314 162.073 68.699 168.088 75.0849C168.804 75.8391 169.497 76.6252 170.15 77.421C171.211 78.7139 172.213 80.0744 173.14 81.4781C177.003 87.2943 179.9 94.3668 181.747 102.497C184.301 113.766 184.91 127.463 183.556 143.206ZM223.175 74.4574C220.684 79.7418 215.789 85.1291 209.743 89.2403C203.462 93.5158 196.648 96.0352 190.84 96.3295C189.037 89.7631 186.575 83.8118 183.492 78.5716C186.217 74.482 190.168 70.5796 194.87 67.3825C200.915 63.2692 207.725 60.6944 213.554 60.3166C218.408 60.004 222.145 61.2291 223.813 63.6819C225.482 66.1311 225.249 70.0591 223.175 74.4574Z" fill="white"/>
<path d="M153.473 155.691C152.935 155.623 152.392 155.561 151.846 155.504C149.008 155.207 146.472 157.269 146.178 160.105C145.883 162.941 147.943 165.479 150.779 165.773C151.247 165.822 151.713 165.876 152.175 165.935C152.395 165.962 152.614 165.976 152.83 165.976C155.393 165.976 157.616 164.07 157.946 161.461C158.303 158.633 156.301 156.05 153.473 155.691Z" fill="white"/>
<path d="M91.1668 178.213C82.2416 178.213 74.9802 185.474 74.9802 194.399C74.9802 203.324 82.2413 210.585 91.1668 210.585C100.092 210.585 107.352 203.324 107.352 194.399C107.352 185.473 100.091 178.213 91.1668 178.213ZM91.1668 200.259C87.9351 200.259 85.306 197.63 85.306 194.399C85.306 191.167 87.9351 188.539 91.1668 188.539C94.3984 188.539 97.0269 191.168 97.0269 194.399C97.0269 197.63 94.3978 200.259 91.1668 200.259Z" fill="white"/>
<path d="M144.94 178.213C136.015 178.213 128.754 185.474 128.754 194.399C128.754 203.324 136.015 210.585 144.94 210.585C153.866 210.585 161.126 203.324 161.126 194.399C161.126 185.473 153.865 178.213 144.94 178.213ZM144.94 200.259C141.709 200.259 139.08 197.63 139.08 194.399C139.08 191.167 141.709 188.539 144.94 188.539C148.172 188.539 150.801 191.168 150.801 194.399C150.8 197.63 148.172 200.259 144.94 200.259Z" fill="white"/>
<path d="M79.0635 113.953C76.2119 113.953 73.9004 116.265 73.9004 119.116V122.27C73.9004 125.122 76.2119 127.433 79.0635 127.433C81.9154 127.433 84.2266 125.122 84.2266 122.27V119.116C84.2262 116.265 81.9147 113.953 79.0635 113.953Z" fill="white"/>
<path d="M157.043 113.953C154.192 113.953 151.88 116.265 151.88 119.116V122.27C151.88 125.122 154.192 127.433 157.043 127.433C159.894 127.433 162.206 125.122 162.206 122.27V119.116C162.206 116.265 159.895 113.953 157.043 113.953Z" fill="white"/>
</svg>
