<?xml version="1.0" encoding="iso-8859-1"?>
<!-- Generator: Adobe Illustrator 19.0.0, SVG Export Plug-In . SVG Version: 6.00 Build 0)  -->
<svg version="1.1" id="Layer_1" xmlns="http://www.w3.org/2000/svg" xmlns:xlink="http://www.w3.org/1999/xlink" x="0px" y="0px"
	 viewBox="0 0 512.001 512.001" style="enable-background:new 0 0 512.001 512.001;" xml:space="preserve">
<g>
	<g>
		<path d="M490.638,118.806c-7.864-11.565-22.053-17.299-39.956-16.138c-15.864,1.027-33.234,7.466-48.908,18.131
			c-6.311,4.291-12.125,9.138-17.256,14.341c10.525-22.849,15.129-45.867,13.351-67.439c-1.858-22.525-10.711-42.758-24.291-55.51
			c-13.612-12.783-30.225-15.703-42.324-7.438c-16.914,11.555-15.773,28.089-14.668,44.08c1.056,15.299,2.237,32.444-8.381,54.234
			c-15.791-3.799-33.456-5.729-52.667-5.729c-18.897,0-36.282,1.869-51.831,5.545c-10.528-21.708-9.348-38.801-8.294-54.055
			c1.105-15.988,2.248-32.521-14.668-44.078c-12.267-8.373-28.469-5.539-42.277,7.401c-13.56,12.708-22.423,32.882-24.316,55.352
			c-1.823,21.627,2.774,44.722,13.333,67.643c-5.132-5.203-10.944-10.054-17.254-14.347c-15.676-10.665-33.046-17.105-48.91-18.132
			c-17.902-1.166-32.09,4.572-39.954,16.135c-7.867,11.56-7.987,26.861-0.338,43.086c6.781,14.383,19.147,28.174,34.818,38.831
			c14.98,10.199,31.167,16.404,46.133,17.916c-3.552,22.453-4.055,47.84-1.533,77.166c2.244,26.077,7.487,51.06,15.58,74.33
			c-2.653,8.85-3.996,18.865-3.996,29.836c0,61.776,41.883,112.034,93.364,112.034c18.241,0,35.566-6.123,50.607-17.801
			c15.041,11.679,32.366,17.801,50.607,17.801c51.48,0,93.364-50.258,93.364-112.034c0-10.883-1.317-20.807-3.917-29.562
			c8.05-23.309,13.278-48.383,15.534-74.605c2.477-28.799,1.899-54.663-1.688-77.132c14.962-1.477,31.187-7.695,46.251-17.945
			c15.676-10.66,28.044-24.451,34.824-38.834C498.624,145.665,498.503,130.363,490.638,118.806z M337.733,47.374
			c-1.125-16.28-0.732-20.874,5.478-25.117c4.044-2.762,10.882,0.712,15.857,5.387c9.657,9.068,16.266,24.695,17.676,41.799
			c1.565,18.986-2.973,39.625-13.138,60.31c-10.138-8.381-21.83-15.18-34.975-20.317C340.25,83.857,338.817,63.079,337.733,47.374z
			 M135.274,69.284c1.437-17.057,8.05-32.633,17.688-41.665c4.969-4.657,11.79-8.118,15.829-5.364
			c6.21,4.243,6.602,8.835,5.476,25.111c-1.082,15.647-2.51,36.342,8.985,61.804c-13.191,5.095-24.907,11.857-35.04,20.202
			C138.15,108.756,133.68,88.195,135.274,69.284z M106.38,197.723c-11.92-0.671-25.84-5.833-38.611-14.529
			c-12.407-8.436-22.456-19.497-27.57-30.345c-4.256-9.029-4.734-17.091-1.309-22.125c3.422-5.033,11.096-7.551,21.059-6.906
			c11.966,0.775,25.946,6.061,38.356,14.505c9.524,6.48,17.557,14.374,23.133,22.637
			C115.078,171.821,110.037,184.137,106.38,197.723z M390.469,293.982c-1.499,17.413-4.392,34.259-8.627,50.33
			c-5.973-6.716-13.385-12.166-22.215-16.281c-5.306-2.474-11.611-0.175-14.083,5.13c-2.472,5.306-0.176,11.611,5.131,14.083
			c11.978,5.582,19.893,14.261,24.201,26.542c2.587,7.352,3.899,16.161,3.899,26.181c0,50.088-32.373,90.837-72.167,90.837
			c-15.739,0-30.717-6.313-43.315-18.256c-4.088-3.876-10.495-3.876-14.584,0c-12.598,11.944-27.576,18.256-43.315,18.256
			c-39.792,0-72.167-40.749-72.167-90.837c0-10.005,1.317-18.82,3.904-26.205c0.078-0.206,0.16-0.41,0.225-0.622
			c8.375-22.935,30.008-33.627,68.037-33.627c8.413,0,16.143,0.55,22.98,1.634c18.332,2.901,36.922,2.901,55.259,0
			c4.326-0.687,9.031-1.163,13.984-1.414c5.846-0.297,10.345-5.277,10.047-11.123c-0.298-5.846-5.295-10.351-11.122-10.047
			c-5.703,0.289-11.165,0.845-16.227,1.648c-16.135,2.552-32.496,2.552-48.624,0c-7.928-1.258-16.775-1.896-26.297-1.896
			c-21.576,0-38.874,3.156-52.88,9.649c-8.849,4.103-16.279,9.543-22.272,16.254c-4.274-16.061-7.184-32.876-8.677-50.235
			c-2.789-32.419-1.604-60.542,3.527-83.602c3.723-16.836,9.652-31.472,17.641-43.534c3.096-4.71,6.577-9.113,10.371-13.11
			c12.279-13.031,28.484-22.554,48.161-28.306c15.657-4.576,33.917-6.896,54.273-6.896c20.647,0,39.165,2.387,55.036,7.094
			c19.607,5.819,35.794,15.401,48.141,28.51c1.47,1.548,2.893,3.162,4.234,4.796c2.178,2.654,4.236,5.447,6.137,8.328
			c7.931,11.94,13.878,26.459,17.67,43.149C391.998,233.547,393.248,261.664,390.469,293.982z M471.801,152.851
			c-5.114,10.848-15.162,21.907-27.573,30.347c-12.895,8.777-26.883,13.949-38.807,14.553c-3.701-13.48-8.754-25.697-15.083-36.454
			c5.593-8.396,13.704-16.407,23.356-22.97c12.411-8.444,26.39-13.73,38.356-14.505c9.965-0.642,17.637,1.873,21.06,6.908
			C476.537,135.758,476.059,143.822,471.801,152.851z"/>
	</g>
</g>
<g>
	<g>
		<path d="M328.712,319.612c-1.104-0.14-2.218-0.267-3.339-0.384c-5.826-0.609-11.032,3.624-11.636,9.446
			c-0.606,5.821,3.624,11.031,9.445,11.636c0.961,0.1,1.918,0.21,2.865,0.331c0.453,0.057,0.902,0.085,1.346,0.085
			c5.26,0,9.824-3.913,10.501-9.268C338.629,325.651,334.518,320.348,328.712,319.612z"/>
	</g>
</g>
<g>
	<g>
		<path d="M200.806,365.846c-18.322,0-33.229,14.906-33.229,33.228s14.906,33.229,33.229,33.229
			c18.323,0,33.227-14.906,33.227-33.229S219.127,365.846,200.806,365.846z M200.806,411.105c-6.634,0-12.031-5.397-12.031-12.031
			c0-6.634,5.397-12.03,12.031-12.03c6.634,0,12.03,5.397,12.03,12.03C212.836,405.708,207.439,411.105,200.806,411.105z"/>
	</g>
</g>
<g>
	<g>
		<path d="M311.196,365.846c-18.322,0-33.229,14.906-33.229,33.228s14.906,33.229,33.229,33.229s33.227-14.906,33.227-33.229
			S329.518,365.846,311.196,365.846z M311.196,411.105c-6.634,0-12.031-5.397-12.031-12.031c0-6.634,5.398-12.03,12.031-12.03
			c6.634,0,12.03,5.397,12.03,12.03C323.225,405.708,317.83,411.105,311.196,411.105z"/>
	</g>
</g>
<g>
	<g>
		<path d="M175.96,233.93c-5.854,0-10.599,4.745-10.599,10.599v6.474c0,5.854,4.745,10.599,10.599,10.599
			s10.599-4.745,10.599-10.599v-6.474C186.558,238.675,181.813,233.93,175.96,233.93z"/>
	</g>
</g>
<g>
	<g>
		<path d="M336.041,233.93c-5.853,0-10.599,4.745-10.599,10.599v6.474c0,5.854,4.746,10.599,10.599,10.599
			s10.599-4.745,10.599-10.599v-6.474C346.64,238.675,341.895,233.93,336.041,233.93z"/>
	</g>
</g>
<g>
</g>
<g>
</g>
<g>
</g>
<g>
</g>
<g>
</g>
<g>
</g>
<g>
</g>
<g>
</g>
<g>
</g>
<g>
</g>
<g>
</g>
<g>
</g>
<g>
</g>
<g>
</g>
<g>
</g>
</svg>
