<svg width="302" height="302" viewBox="0 0 302 302" fill="none" xmlns="http://www.w3.org/2000/svg">
<circle cx="151" cy="151" r="151" fill="white"/>
<path d="M265.511 83.8738C261.68 78.2401 254.768 75.4471 246.047 76.0124C238.319 76.5129 229.858 79.6495 222.223 84.8445C219.149 86.9348 216.317 89.2959 213.817 91.8306C218.944 80.7 221.187 69.4876 220.321 58.9792C219.416 48.0067 215.103 38.1507 208.488 31.9389C201.857 25.712 193.765 24.2896 187.871 28.3157C179.632 33.9444 180.188 41.9985 180.726 49.7881C181.24 57.2407 181.815 65.5925 176.643 76.207C168.951 74.3563 160.346 73.4162 150.988 73.4162C141.782 73.4162 133.314 74.3264 125.739 76.1172C120.611 65.5426 121.186 57.2163 121.699 49.7857C122.238 41.9976 122.794 33.9439 114.554 28.3142C108.578 24.2355 100.686 25.616 93.9602 31.9194C87.3545 38.1098 83.0371 47.9371 82.1153 58.8828C81.2271 69.4177 83.4664 80.668 88.6099 91.8332C86.1101 89.2989 83.2789 86.9358 80.2051 84.8445C72.5689 79.6495 64.1076 76.5122 56.3798 76.0121C47.6594 75.4441 40.748 78.2391 36.9173 83.8718C33.0851 89.5031 33.0266 96.9564 36.7526 104.86C40.0558 111.866 46.0796 118.584 53.7133 123.775C61.0104 128.744 68.8956 131.766 76.186 132.503C74.4555 143.44 74.2107 155.807 75.4391 170.092C76.5322 182.795 79.0861 194.965 83.0284 206.3C81.7362 210.611 81.0821 215.49 81.0821 220.834C81.0821 250.927 101.484 275.409 126.562 275.409C135.447 275.409 143.887 272.426 151.214 266.737C158.541 272.426 166.98 275.409 175.866 275.409C200.943 275.409 221.346 250.927 221.346 220.834C221.346 215.533 220.704 210.699 219.437 206.434C223.359 195.079 225.905 182.865 227.005 170.092C228.211 156.063 227.93 143.464 226.182 132.519C233.471 131.799 241.374 128.771 248.712 123.777C256.348 118.585 262.373 111.867 265.676 104.861C269.401 96.9574 269.342 89.5034 265.511 83.8738ZM191.027 49.0774C190.479 41.147 190.67 38.9092 193.696 36.8423C195.665 35.4969 198.996 37.1892 201.42 39.4665C206.124 43.8837 209.343 51.496 210.03 59.8278C210.793 69.0762 208.582 79.13 203.63 89.2061C198.692 85.1238 192.997 81.8117 186.593 79.3093C192.253 66.8492 191.555 56.7277 191.027 49.0774ZM92.4042 59.7503C93.1042 51.4414 96.3256 43.854 101.02 39.4543C103.441 37.1857 106.764 35.4998 108.731 36.8414C111.756 38.9082 111.947 41.1451 111.398 49.0735C110.872 56.6956 110.176 66.7767 115.775 79.1799C109.35 81.6617 103.643 84.9555 98.7066 89.0206C93.8052 78.978 91.6277 68.9625 92.4042 59.7503ZM78.3293 122.316C72.5227 121.989 65.7419 119.475 59.5208 115.239C53.4771 111.129 48.582 105.741 46.0908 100.457C44.0176 96.0585 43.7847 92.1315 45.4532 89.6793C47.1201 87.2275 50.8583 86.0011 55.7115 86.3153C61.5405 86.6927 68.3506 89.2676 74.3956 93.3809C79.0349 96.5374 82.948 100.383 85.6642 104.408C82.5662 109.699 80.1107 115.698 78.3293 122.316ZM216.716 169.206C215.986 177.689 214.576 185.895 212.514 193.723C209.604 190.452 205.993 187.797 201.692 185.792C199.107 184.587 196.036 185.707 194.832 188.291C193.628 190.876 194.746 193.947 197.331 195.151C203.166 197.871 207.022 202.098 209.12 208.081C210.38 211.662 211.019 215.953 211.019 220.834C211.019 245.233 195.25 265.083 175.865 265.083C168.198 265.083 160.902 262.008 154.765 256.19C152.774 254.302 149.653 254.302 147.661 256.19C141.524 262.008 134.228 265.083 126.561 265.083C107.178 265.083 91.4069 245.233 91.4069 220.834C91.4069 215.96 92.0487 211.667 93.3087 208.069C93.3466 207.969 93.3869 207.869 93.4185 207.766C97.4981 196.594 108.036 191.386 126.561 191.386C130.659 191.386 134.425 191.653 137.755 192.181C146.685 193.595 155.741 193.595 164.673 192.181C166.78 191.847 169.072 191.615 171.485 191.493C174.333 191.348 176.524 188.922 176.379 186.074C176.234 183.227 173.8 181.032 170.961 181.18C168.183 181.321 165.522 181.592 163.057 181.983C155.197 183.226 147.227 183.226 139.371 181.983C135.509 181.37 131.199 181.06 126.561 181.06C116.051 181.06 107.624 182.597 100.802 185.76C96.4912 187.758 92.8718 190.408 89.9524 193.678C87.8706 185.854 86.453 177.663 85.7257 169.207C84.3673 153.415 84.9442 139.715 87.4436 128.482C89.2573 120.281 92.1455 113.151 96.0373 107.276C97.5453 104.981 99.241 102.836 101.089 100.889C107.07 94.5418 114.964 89.9028 124.55 87.1008C132.177 84.8717 141.071 83.7418 150.987 83.7418C161.045 83.7418 170.066 84.9043 177.797 87.1972C187.348 90.0318 195.233 94.6994 201.247 101.085C201.963 101.839 202.657 102.626 203.31 103.421C204.371 104.714 205.373 106.075 206.299 107.478C210.162 113.295 213.06 120.367 214.907 128.497C217.461 139.767 218.07 153.463 216.716 169.206ZM256.335 100.458C253.844 105.742 248.949 111.129 242.903 115.241C236.622 119.516 229.808 122.036 223.999 122.33C222.197 115.763 219.735 109.812 216.652 104.572C219.377 100.482 223.328 96.58 228.029 93.3829C234.075 89.2696 240.885 86.6947 246.713 86.317C251.568 86.0044 255.305 87.2295 256.972 89.6823C258.642 92.1315 258.409 96.0595 256.335 100.458Z" fill="#1BACCC"/>
<path d="M186.633 181.691C186.095 181.623 185.552 181.561 185.006 181.504C182.168 181.207 179.632 183.27 179.338 186.106C179.043 188.941 181.103 191.479 183.939 191.774C184.407 191.823 184.873 191.876 185.334 191.935C185.555 191.963 185.774 191.976 185.99 191.976C188.552 191.976 190.776 190.07 191.105 187.462C191.463 184.633 189.461 182.05 186.633 181.691Z" fill="#1BACCC"/>
<path d="M124.326 204.213C115.401 204.213 108.14 211.474 108.14 220.399C108.14 229.324 115.401 236.586 124.326 236.586C133.252 236.586 140.512 229.325 140.512 220.399C140.512 211.474 133.251 204.213 124.326 204.213ZM124.326 226.26C121.095 226.26 118.466 223.631 118.466 220.399C118.466 217.167 121.095 214.539 124.326 214.539C127.558 214.539 130.187 217.168 130.187 220.399C130.187 223.631 127.557 226.26 124.326 226.26Z" fill="#1BACCC"/>
<path d="M178.1 204.213C169.175 204.213 161.913 211.474 161.913 220.399C161.913 229.324 169.174 236.586 178.1 236.586C187.026 236.586 194.286 229.325 194.286 220.399C194.286 211.474 187.025 204.213 178.1 204.213ZM178.1 226.26C174.869 226.26 172.239 223.631 172.239 220.399C172.239 217.167 174.869 214.539 178.1 214.539C181.332 214.539 183.96 217.168 183.96 220.399C183.96 223.631 181.332 226.26 178.1 226.26Z" fill="#1BACCC"/>
<path d="M112.223 139.953C109.372 139.953 107.06 142.265 107.06 145.116V148.27C107.06 151.122 109.372 153.433 112.223 153.433C115.075 153.433 117.386 151.122 117.386 148.27V145.116C117.386 142.265 115.074 139.953 112.223 139.953Z" fill="#1BACCC"/>
<path d="M190.203 139.953C187.352 139.953 185.04 142.265 185.04 145.116V148.27C185.04 151.122 187.352 153.433 190.203 153.433C193.054 153.433 195.366 151.122 195.366 148.27V145.116C195.366 142.265 193.054 139.953 190.203 139.953Z" fill="#1BACCC"/>
</svg>
