<svg width="169" height="75" viewBox="0 0 169 75" fill="none" xmlns="http://www.w3.org/2000/svg">
<g clip-path="url(#clip0)">
<g clip-path="url(#clip1)">
<path d="M69.8707 17.4032C68.7187 15.7091 66.6403 14.8692 64.0177 15.0392C61.6939 15.1897 59.1495 16.1329 56.8535 17.6951C55.929 18.3237 55.0774 19.0337 54.3258 19.7959C55.8675 16.4488 56.5419 13.0771 56.2815 9.91711C56.0093 6.61755 54.7125 3.65374 52.7232 1.78578C50.7293 -0.0867307 48.2958 -0.514464 46.5234 0.696227C44.0458 2.38885 44.213 4.81082 44.3748 7.15325C44.5295 9.39431 44.7025 11.9058 43.1471 15.0977C40.834 14.5412 38.2464 14.2585 35.4323 14.2585C32.6641 14.2585 30.1175 14.5322 27.8398 15.0707C26.2977 11.8908 26.4705 9.38698 26.6249 7.15251C26.7868 4.81053 26.9542 2.3887 24.4763 0.695787C22.6794 -0.530724 20.306 -0.115588 18.2834 1.77992C16.297 3.64144 14.9987 6.59661 14.7215 9.88811C14.4544 13.0561 15.1278 16.4392 16.6745 19.7967C15.9228 19.0346 15.0714 18.324 14.1471 17.6951C11.8508 16.1329 9.30638 15.1895 6.98255 15.0391C4.3602 14.8683 2.28188 15.7088 1.12993 17.4026C-0.0224608 19.096 -0.0400391 21.3373 1.08042 23.714C2.07373 25.8209 3.88515 27.8411 6.1807 29.4021C8.37503 30.8961 10.7462 31.8051 12.9385 32.0265C12.4181 35.3156 12.3445 39.0343 12.7139 43.3301C13.0426 47.15 13.8106 50.8096 14.9961 54.2183C14.6075 55.5147 14.4108 56.9817 14.4108 58.5888C14.4108 67.638 20.546 75 28.0871 75C30.7591 75 33.297 74.1031 35.5002 72.3924C37.7035 74.1032 40.2413 75 42.9133 75C50.4543 75 56.5897 67.638 56.5897 58.5888C56.5897 56.9946 56.3968 55.5409 56.0159 54.2584C57.1951 50.844 57.9609 47.1711 58.2914 43.33C58.6542 39.1114 58.5696 35.3227 58.0441 32.0314C60.2358 31.815 62.6125 30.9042 64.8192 29.4027C67.1154 27.8412 68.9272 25.821 69.9203 23.7142C71.0405 21.3376 71.0228 19.0961 69.8707 17.4032ZM47.4725 6.93953C47.3077 4.55477 47.3653 3.88182 48.275 3.26028C48.8673 2.8557 49.869 3.36458 50.5978 4.04939C52.0123 5.37771 52.9805 7.66682 53.187 10.1723C53.4163 12.9534 52.7515 15.9767 51.2625 19.0067C49.7774 17.7791 48.0648 16.7831 46.1392 16.0306C47.8412 12.2837 47.6313 9.24006 47.4725 6.93953ZM17.8155 10.149C18.026 7.65041 18.9947 5.36878 20.4065 4.04573C21.1344 3.36356 22.1336 2.85657 22.7252 3.25999C23.6349 3.88152 23.6923 4.55418 23.5273 6.93835C23.3688 9.23039 23.1597 12.2619 24.8435 15.9917C22.9112 16.738 21.195 17.7285 19.7107 18.9509C18.2368 15.931 17.582 12.9192 17.8155 10.149ZM13.583 28.9633C11.8369 28.865 9.79783 28.1088 7.92708 26.835C6.10966 25.5993 4.63764 23.979 3.88852 22.3899C3.26508 21.0673 3.19506 19.8864 3.69677 19.149C4.19804 18.4117 5.32216 18.0429 6.78158 18.1374C8.53441 18.2509 10.5823 19.0252 12.4001 20.2621C13.7952 21.2113 14.9719 22.3677 15.7887 23.5781C14.8571 25.169 14.1187 26.9731 13.583 28.9633ZM55.1975 43.0637C54.9779 45.6144 54.5541 48.0821 53.9338 50.4362C53.0588 49.4524 51.9731 48.6541 50.6796 48.0513C49.9024 47.6889 48.9788 48.0257 48.6167 48.8028C48.2546 49.58 48.5909 50.5036 49.3683 50.8657C51.1229 51.6834 52.2823 52.9547 52.9134 54.7537C53.2923 55.8307 53.4845 57.121 53.4845 58.5888C53.4845 65.9259 48.7424 71.895 42.9132 71.895C40.6077 71.895 38.4136 70.9702 36.5682 69.2208C35.9694 68.653 35.0309 68.653 34.4319 69.2208C32.5865 70.9704 30.3925 71.895 28.087 71.895C22.2581 71.895 17.5156 65.9259 17.5156 58.5888C17.5156 57.1232 17.7086 55.832 18.0875 54.7502C18.0989 54.72 18.111 54.6901 18.1205 54.6591C19.3473 51.2995 22.5162 49.7332 28.0868 49.7332C29.3192 49.7332 30.4515 49.8138 31.453 49.9726C34.1384 50.3976 36.8615 50.3976 39.5476 49.9726C40.1813 49.872 40.8705 49.8022 41.596 49.7655C42.4524 49.722 43.1114 48.9925 43.0677 48.1361C43.0241 47.2798 42.2921 46.6199 41.4385 46.6644C40.6031 46.7067 39.803 46.7882 39.0615 46.9058C36.698 47.2796 34.3014 47.2796 31.9389 46.9058C30.7776 46.7215 29.4816 46.6281 28.0868 46.6281C24.9263 46.6281 22.3924 47.0904 20.3407 48.0415C19.0445 48.6425 17.9561 49.4394 17.0782 50.4225C16.4522 48.0698 16.0259 45.6066 15.8072 43.0638C15.3987 38.315 15.5722 34.1954 16.3238 30.8175C16.8692 28.3513 17.7377 26.2073 18.908 24.4404C19.3615 23.7505 19.8714 23.1055 20.4272 22.52C22.2258 20.6112 24.5996 19.2162 27.482 18.3736C29.7755 17.7033 32.4503 17.3635 35.4321 17.3635C38.4566 17.3635 41.1692 17.7131 43.494 18.4026C46.3661 19.255 48.7373 20.6586 50.5459 22.5789C50.7612 22.8057 50.9697 23.0421 51.1661 23.2814C51.4852 23.6702 51.7866 24.0793 52.0651 24.5014C53.2268 26.2504 54.098 28.3772 54.6535 30.822C55.4215 34.2109 55.6046 38.3296 55.1975 43.0637ZM67.1113 22.3902C66.3622 23.9793 64.8904 25.5993 63.0723 26.8356C61.1834 28.1213 59.1344 28.8789 57.3877 28.9674C56.8456 26.9928 56.1054 25.2032 55.1783 23.6274C55.9976 22.3976 57.1857 21.2241 58.5996 20.2627C60.4176 19.0258 62.4653 18.2515 64.2181 18.1379C65.6778 18.0439 66.8017 18.4123 67.3031 19.1499C67.8051 19.8864 67.7351 21.0676 67.1113 22.3902Z" fill="white"/>
<path d="M46.1511 46.8181C45.9894 46.7976 45.8262 46.779 45.662 46.7618C44.8085 46.6726 44.046 47.2927 43.9575 48.1455C43.8687 48.9982 44.4883 49.7614 45.341 49.85C45.4818 49.8647 45.622 49.8808 45.7607 49.8985C45.827 49.9068 45.8928 49.9109 45.9579 49.9109C46.7284 49.9109 47.3969 49.3378 47.4961 48.5533C47.6037 47.7027 47.0015 46.9259 46.1511 46.8181Z" fill="white"/>
<path d="M27.4149 53.5906C24.731 53.5906 22.5474 55.7741 22.5474 58.458C22.5474 61.1419 24.7309 63.3255 27.4149 63.3255C30.0989 63.3255 32.2821 61.142 32.2821 58.458C32.2821 55.774 30.0986 53.5906 27.4149 53.5906ZM27.4149 60.2203C26.4431 60.2203 25.6525 59.4298 25.6525 58.458C25.6525 57.4862 26.4431 56.6958 27.4149 56.6958C28.3867 56.6958 29.1771 57.4864 29.1771 58.458C29.1771 59.4298 28.3865 60.2203 27.4149 60.2203Z" fill="white"/>
<path d="M43.5853 53.5906C40.9014 53.5906 38.7177 55.7741 38.7177 58.458C38.7177 61.1419 40.9012 63.3255 43.5853 63.3255C46.2693 63.3255 48.4525 61.142 48.4525 58.458C48.4525 55.774 46.2691 53.5906 43.5853 53.5906ZM43.5853 60.2203C42.6135 60.2203 41.8229 59.4298 41.8229 58.458C41.8229 57.4862 42.6136 56.6958 43.5853 56.6958C44.557 56.6958 45.3475 57.4864 45.3475 58.458C45.3473 59.4298 44.557 60.2203 43.5853 60.2203Z" fill="white"/>
<path d="M23.7753 34.267C22.9178 34.267 22.2227 34.9621 22.2227 35.8196V36.7679C22.2227 37.6255 22.9178 38.3205 23.7753 38.3205C24.6329 38.3205 25.3279 37.6255 25.3279 36.7679V35.8196C25.3278 34.9621 24.6327 34.267 23.7753 34.267Z" fill="white"/>
<path d="M47.2247 34.267C46.3673 34.267 45.6721 34.9621 45.6721 35.8196V36.7679C45.6721 37.6255 46.3673 38.3205 47.2247 38.3205C48.082 38.3205 48.7773 37.6255 48.7773 36.7679V35.8196C48.7773 34.9621 48.0822 34.267 47.2247 34.267Z" fill="white"/>
</g>
<path d="M90.664 23.608C91.688 23.608 92.6 23.824 93.4 24.256C94.2 24.672 94.832 25.304 95.296 26.152C95.76 27 95.992 28.032 95.992 29.248V37H93.832V29.56C93.832 28.248 93.504 27.248 92.848 26.56C92.208 25.856 91.336 25.504 90.232 25.504C89.096 25.504 88.192 25.872 87.52 26.608C86.848 27.328 86.512 28.376 86.512 29.752V37H84.352V29.56C84.352 28.248 84.024 27.248 83.368 26.56C82.728 25.856 81.856 25.504 80.752 25.504C79.616 25.504 78.712 25.872 78.04 26.608C77.368 27.328 77.032 28.376 77.032 29.752V37H74.848V23.848H77.032V25.744C77.464 25.056 78.04 24.528 78.76 24.16C79.496 23.792 80.304 23.608 81.184 23.608C82.288 23.608 83.264 23.856 84.112 24.352C84.96 24.848 85.592 25.576 86.008 26.536C86.376 25.608 86.984 24.888 87.832 24.376C88.68 23.864 89.624 23.608 90.664 23.608ZM100.703 21.712C100.287 21.712 99.9346 21.568 99.6466 21.28C99.3586 20.992 99.2146 20.64 99.2146 20.224C99.2146 19.808 99.3586 19.456 99.6466 19.168C99.9346 18.88 100.287 18.736 100.703 18.736C101.103 18.736 101.439 18.88 101.711 19.168C101.999 19.456 102.143 19.808 102.143 20.224C102.143 20.64 101.999 20.992 101.711 21.28C101.439 21.568 101.103 21.712 100.703 21.712ZM101.759 23.848V37H99.5746V23.848H101.759ZM107.665 19.24V37H105.481V19.24H107.665ZM118.731 37L113.571 31.192V37H111.387V19.24H113.571V29.68L118.635 23.848H121.683L115.491 30.4L121.707 37H118.731Z" fill="white"/>
<path d="M83.427 72.344C81.3343 72.344 79.471 71.9857 77.837 71.269C76.203 70.5523 74.913 69.5777 73.967 68.345C73.021 67.0837 72.4907 65.679 72.376 64.131H79.643C79.729 64.9623 80.116 65.636 80.804 66.152C81.492 66.668 82.3377 66.926 83.341 66.926C84.2583 66.926 84.9607 66.754 85.448 66.41C85.964 66.0373 86.222 65.5643 86.222 64.991C86.222 64.303 85.8637 63.8013 85.147 63.486C84.4303 63.142 83.2693 62.7693 81.664 62.368C79.944 61.9667 78.5107 61.551 77.364 61.121C76.2173 60.6623 75.2283 59.96 74.397 59.014C73.5657 58.0393 73.15 56.735 73.15 55.101C73.15 53.725 73.5227 52.478 74.268 51.36C75.042 50.2133 76.16 49.3103 77.622 48.651C79.1127 47.9917 80.8757 47.662 82.911 47.662C85.921 47.662 88.286 48.4073 90.006 49.898C91.7547 51.3887 92.758 53.3667 93.016 55.832H86.222C86.1073 55.0007 85.7347 54.3413 85.104 53.854C84.502 53.3667 83.6993 53.123 82.696 53.123C81.836 53.123 81.1767 53.295 80.718 53.639C80.2593 53.9543 80.03 54.3987 80.03 54.972C80.03 55.66 80.3883 56.176 81.105 56.52C81.8503 56.864 82.997 57.208 84.545 57.552C86.3223 58.0107 87.77 58.4693 88.888 58.928C90.006 59.358 90.9807 60.0747 91.812 61.078C92.672 62.0527 93.1163 63.3713 93.145 65.034C93.145 66.4387 92.7437 67.7 91.941 68.818C91.167 69.9073 90.0347 70.7673 88.544 71.398C87.082 72.0287 85.3763 72.344 83.427 72.344ZM111.017 65.765V72H107.276C104.61 72 102.531 71.355 101.041 70.065C99.5499 68.7463 98.8045 66.6107 98.8045 63.658V54.112H95.8805V48.006H98.8045V42.158H106.158V48.006H110.974V54.112H106.158V63.744C106.158 64.4607 106.33 64.9767 106.674 65.292C107.018 65.6073 107.591 65.765 108.394 65.765H111.017ZM113.65 59.96C113.65 57.4947 114.109 55.3303 115.026 53.467C115.972 51.6037 117.248 50.1703 118.853 49.167C120.459 48.1637 122.25 47.662 124.228 47.662C125.92 47.662 127.396 48.006 128.657 48.694C129.947 49.382 130.936 50.285 131.624 51.403V48.006H138.977V72H131.624V68.603C130.908 69.721 129.904 70.624 128.614 71.312C127.353 72 125.877 72.344 124.185 72.344C122.236 72.344 120.459 71.8423 118.853 70.839C117.248 69.807 115.972 68.3593 115.026 66.496C114.109 64.604 113.65 62.4253 113.65 59.96ZM131.624 60.003C131.624 58.1683 131.108 56.7207 130.076 55.66C129.073 54.5993 127.84 54.069 126.378 54.069C124.916 54.069 123.669 54.5993 122.637 55.66C121.634 56.692 121.132 58.1253 121.132 59.96C121.132 61.7947 121.634 63.2567 122.637 64.346C123.669 65.4067 124.916 65.937 126.378 65.937C127.84 65.937 129.073 65.4067 130.076 64.346C131.108 63.2853 131.624 61.8377 131.624 60.003ZM151.65 52.005C152.51 50.6863 153.585 49.6543 154.875 48.909C156.165 48.135 157.598 47.748 159.175 47.748V55.531H157.154C155.319 55.531 153.943 55.9323 153.026 56.735C152.109 57.509 151.65 58.885 151.65 60.863V72H144.297V48.006H151.65V52.005Z" fill="white"/>
</g>
<defs>
<clipPath id="clip0">
<rect width="169" height="75" fill="white"/>
</clipPath>
<clipPath id="clip1">
<rect width="75" height="75" fill="white" transform="translate(-2)"/>
</clipPath>
</defs>
</svg>
