<svg width="150" height="150" viewBox="0 0 150 150" fill="none" xmlns="http://www.w3.org/2000/svg">
<rect opacity="0.15" x="1" y="1" width="148" height="148" rx="14" stroke="#1BACCC" stroke-width="2"/>
<rect opacity="0.15" x="15" y="15" width="120" height="120" rx="15" fill="#1BACCC"/>
<g clip-path="url(#clip0)">
<path d="M53.8102 90.0625C53.8102 89.769 53.8253 89.4793 53.8488 89.1917H51.0673C47.2649 89.1917 44.1716 92.2852 44.1716 96.0875V105.125C44.1716 106.161 45.0109 107 46.0466 107H54.1327C53.9244 106.413 53.8102 105.782 53.8102 105.125V90.0625Z" fill="#1BACCC"/>
<path d="M67.1992 84.0375C67.1992 83.744 67.2143 83.4541 67.2378 83.1666H64.4562C60.6537 83.1666 57.5602 86.2601 57.5602 90.0625V105.125C57.5602 106.16 58.3996 107 59.4352 107H67.5216C67.3133 106.413 67.199 105.782 67.199 105.125V84.0375H67.1992Z" fill="#1BACCC"/>
<path d="M94.5812 72.0436H91.2338C87.4314 72.0436 84.338 75.1371 84.338 78.9395V105.125C84.338 106.161 85.1774 107 86.213 107H99.6017C100.637 107 101.477 106.161 101.477 105.125V78.9395C101.477 75.1371 98.3833 72.0436 94.5812 72.0436Z" fill="#1BACCC"/>
<path d="M80.5881 78.9395C80.5881 78.3266 80.643 77.7266 80.7428 77.1417H77.845C74.0426 77.1417 70.9492 80.2351 70.9492 84.0375V105.125C70.9492 106.16 71.7886 107 72.8242 107H80.9106C80.7023 106.413 80.5881 105.782 80.5881 105.125V78.9395Z" fill="#1BACCC"/>
<path d="M105.737 52.3206C105.516 51.6419 104.929 51.1471 104.223 51.0446L97.5661 50.0775L94.5887 44.0451C94.2729 43.4051 93.6211 43 92.9073 43C92.1936 43 91.5418 43.4051 91.2261 44.0451L88.2489 50.0775L81.5921 51.0446C80.8858 51.1471 80.2989 51.6419 80.0786 52.3206C79.8578 52.9994 80.0418 53.7445 80.5529 54.2428L85.3698 58.9384L84.2326 65.5681C84.1119 66.2716 84.4012 66.9825 84.9786 67.402C85.5559 67.8216 86.3214 67.8767 86.9531 67.5449L92.9074 64.4149L98.8618 67.5449C99.1362 67.689 99.4357 67.7603 99.7341 67.7603H99.7412C100.775 67.758 101.612 66.9194 101.612 65.8853C101.612 65.7414 101.596 65.6011 101.565 65.4662L100.445 58.9384L105.262 54.2428C105.773 53.7446 105.957 52.9995 105.737 52.3206Z" fill="#1BACCC"/>
</g>
<defs>
<clipPath id="clip0">
<rect width="64" height="64" fill="white" transform="translate(43 43)"/>
</clipPath>
</defs>
</svg>
