<svg width="196" height="196" viewBox="0 0 196 196" fill="none" xmlns="http://www.w3.org/2000/svg">
<circle opacity="0.2" cx="98" cy="98" r="93" stroke="#1BACCC" stroke-width="10"/>
<g opacity="0.2" clip-path="url(#clip0)">
<path d="M115.68 49.0376H108.13C106.698 44.9917 102.833 42.0859 98.3006 42.0859C93.7681 42.0859 89.903 44.9917 88.464 49.0376H80.9214C79.0027 49.0376 77.4456 50.5948 77.4456 52.5135V66.4168C77.4456 68.3355 79.0027 69.8927 80.9214 69.8927H115.68C117.599 69.8927 119.156 68.3355 119.156 66.4168V52.5135C119.156 50.5948 117.599 49.0376 115.68 49.0376Z" fill="#1BACCC"/>
<path d="M133.059 55.9893H126.107V66.4168C126.107 72.1658 121.429 76.8443 115.68 76.8443H80.9214C75.1724 76.8443 70.4939 72.1658 70.4939 66.4168V55.9893H63.5422C59.7118 55.9893 56.5905 59.1106 56.5905 62.9409V146.361C56.5905 150.261 59.6423 153.313 63.5422 153.313H133.059C136.959 153.313 140.011 150.261 140.011 146.361V62.9409C140.011 59.041 136.959 55.9893 133.059 55.9893ZM97.2857 117.539L83.3823 131.443C82.701 132.117 81.8112 132.458 80.9214 132.458C80.0316 132.458 79.1418 132.117 78.4605 131.443L71.5088 124.491C70.1532 123.136 70.1532 120.932 71.5088 119.576C72.8644 118.221 75.0681 118.221 76.4237 119.576L80.9214 124.067L92.3639 112.625C93.7195 111.269 95.9231 111.269 97.2787 112.625C98.6343 113.98 98.6412 116.177 97.2857 117.539ZM97.2857 89.7327L83.3823 103.636C82.701 104.31 81.8112 104.651 80.9214 104.651C80.0316 104.651 79.1418 104.31 78.4605 103.636L71.5088 96.6844C70.1532 95.3289 70.1532 93.1252 71.5088 91.7696C72.8644 90.414 75.0681 90.414 76.4237 91.7696L80.9214 96.2604L92.3639 84.8179C93.7195 83.4623 95.9231 83.4623 97.2787 84.8179C98.6343 86.1735 98.6412 88.3702 97.2857 89.7327ZM122.632 125.506H108.728C106.809 125.506 105.252 123.949 105.252 122.03C105.252 120.112 106.809 118.554 108.728 118.554H122.632C124.55 118.554 126.107 120.112 126.107 122.03C126.107 123.949 124.55 125.506 122.632 125.506ZM122.632 97.6994H108.728C106.809 97.6994 105.252 96.1422 105.252 94.2235C105.252 92.3049 106.809 90.7477 108.728 90.7477H122.632C124.55 90.7477 126.107 92.3049 126.107 94.2235C126.107 96.1422 124.55 97.6994 122.632 97.6994Z" fill="#1BACCC"/>
</g>
<defs>
<clipPath id="clip0">
<rect width="111.227" height="111.227" fill="white" transform="translate(42.6871 42.0859)"/>
</clipPath>
</defs>
</svg>
