<svg width="150" height="150" viewBox="0 0 150 150" fill="none" xmlns="http://www.w3.org/2000/svg">
<rect opacity="0.15" x="1" y="1" width="148" height="148" rx="14" stroke="#1BACCC" stroke-width="2"/>
<rect opacity="0.15" x="15" y="15" width="120" height="120" rx="15" fill="#1BACCC"/>
<g clip-path="url(#clip0)">
<path d="M62.1799 73.0517C62.1799 80.6202 68.3154 86.7558 75.884 86.7558C83.4526 86.7558 89.5881 80.6202 89.5881 73.0517C89.5881 65.4831 83.4526 59.3476 75.884 59.3476C68.3191 59.3561 62.1884 65.4868 62.1799 73.0517ZM75.884 73.9177C73.6099 73.9304 71.6829 72.2461 71.3919 69.9905C71.101 67.7355 72.5372 65.6167 74.7403 65.0522V63.8937C74.7403 63.369 75.1654 62.944 75.69 62.944C76.2147 62.944 76.6397 63.369 76.6397 63.8937V64.9945C78.7946 65.3591 80.3676 67.2326 80.3538 69.4187C80.3538 69.937 79.9335 70.3573 79.4152 70.3573C78.8969 70.3573 78.4766 69.937 78.4766 69.4187C78.475 67.9841 77.3112 66.8224 75.8766 66.8239C74.4419 66.8255 73.2802 67.9899 73.2824 69.4245C73.2839 70.8586 74.4483 72.0204 75.8829 72.0182C78.209 72.0315 80.1408 73.8164 80.3374 76.1345C80.534 78.4521 78.9303 80.537 76.6397 80.9419V82.074C76.6397 82.5986 76.2147 83.0237 75.69 83.0237C75.1654 83.0237 74.7403 82.5986 74.7403 82.074V80.8836C72.7556 80.3595 71.3686 78.5703 71.3554 76.5177C71.3554 75.9872 71.7857 75.5569 72.3162 75.5569C72.8467 75.5569 73.2771 75.9872 73.2771 76.5177C73.2802 77.8442 74.2798 78.9567 75.5983 79.1013C75.6471 79.0934 75.6969 79.0897 75.7467 79.0892C75.8183 79.0892 75.8893 79.0976 75.9593 79.1135C77.3838 79.0786 78.5143 77.9031 78.4936 76.4785C78.4729 75.0534 77.3086 73.9113 75.884 73.9177Z" fill="#1BACCC"/>
<path d="M97.8774 93.2898C97.8705 93.2935 97.8631 93.2972 97.8551 93.3009L89.039 97.466C89.1339 97.9541 89.1752 98.4507 89.1619 98.9478C89.1482 99.4619 88.7274 99.8715 88.2133 99.8715C88.2043 99.8715 88.1953 99.8715 88.1863 99.8715L75.2835 99.5165C74.7588 99.5021 74.3455 99.0654 74.3598 98.5408C74.3741 98.0161 74.8113 97.6027 75.3354 97.617L87.1957 97.9435C86.8025 95.645 84.8427 93.9427 82.5118 93.8749L74.6629 93.6592C73.1127 93.6147 71.5928 93.222 70.2154 92.5102L69.4167 92.0968C65.4944 90.0532 60.768 90.3193 57.1001 92.7906L56.7858 104.209L58.1346 103.486C59.4749 102.766 61.0431 102.594 62.5079 103.008L75.8283 106.747C78.3955 107.273 81.0634 106.975 83.4515 105.895L101.906 93.9576C100.853 92.8796 99.2219 92.6088 97.8774 93.2898Z" fill="#1BACCC"/>
<path d="M48.1175 106.192L48.5855 89.2037L55.2939 89.3886L54.826 106.377L48.1175 106.192Z" fill="#1BACCC"/>
<path d="M76.7753 54.2609V43.9497C76.7753 43.425 76.3503 43 75.8256 43C75.301 43 74.8759 43.425 74.8759 43.9497V54.2609C74.8759 54.7856 75.301 55.2106 75.8256 55.2106C76.3503 55.2106 76.7753 54.7856 76.7753 54.2609Z" fill="#1BACCC"/>
<path d="M84.9158 54.2609V49.3766C84.9158 48.8519 84.4908 48.4269 83.9661 48.4269C83.4415 48.4269 83.0164 48.8519 83.0164 49.3766V54.2609C83.0164 54.7855 83.4415 55.2106 83.9661 55.2106C84.4908 55.2106 84.9158 54.7855 84.9158 54.2609Z" fill="#1BACCC"/>
<path d="M68.635 54.2609V49.3766C68.635 48.8519 68.2099 48.4269 67.6853 48.4269C67.1606 48.4269 66.7355 48.8519 66.7355 49.3766V54.2609C66.7355 54.7855 67.1606 55.2106 67.6853 55.2106C68.2099 55.2106 68.635 54.7855 68.635 54.2609Z" fill="#1BACCC"/>
<g clip-path="url(#clip1)">
</g>
</g>
<defs>
<clipPath id="clip0">
<rect width="64" height="64" fill="white" transform="translate(43 43)"/>
</clipPath>
<clipPath id="clip1">
<rect width="512" height="512" fill="white" transform="translate(86 -177)"/>
</clipPath>
</defs>
</svg>
