<svg width="562" height="250" viewBox="0 0 562 250" fill="none" xmlns="http://www.w3.org/2000/svg">
<g clip-path="url(#clip0)">
<path d="M232.351 57.8734C228.52 52.2397 221.609 49.4467 212.887 50.012C205.16 50.5125 196.698 53.6491 189.063 58.8441C185.989 60.9345 183.157 63.2955 180.657 65.8302C185.784 54.6996 188.027 43.4872 187.161 32.9788C186.256 22.0063 181.943 12.1503 175.328 5.93853C168.697 -0.288397 160.605 -1.7108 154.711 2.31529C146.472 7.94401 147.028 15.9981 147.566 23.7878C148.08 31.2403 148.656 39.5921 143.483 50.2066C135.791 48.356 127.186 47.4159 117.828 47.4159C108.623 47.4159 100.154 48.326 92.5797 50.1168C87.4516 39.5422 88.0262 31.2159 88.5396 23.7853C89.078 15.9972 89.6347 7.94351 81.3946 2.31382C75.4191 -1.76487 67.5265 -0.38436 60.8004 5.91905C54.1948 12.1094 49.8774 21.9367 48.9556 32.8824C48.0673 43.4173 50.3067 54.6677 55.4501 65.8328C52.9504 63.2985 50.1191 60.9355 47.0454 58.8441C39.4092 53.6491 30.9479 50.5118 23.2201 50.0117C14.4996 49.4437 7.58829 52.2388 3.75755 57.8714C-0.0746632 63.5027 -0.133119 70.956 3.59291 78.8596C6.8961 85.866 12.9199 92.584 20.5536 97.775C27.8507 102.743 35.7359 105.766 43.0263 106.502C41.2957 117.44 41.051 129.806 42.2794 144.092C43.3725 156.795 45.9264 168.964 49.8687 180.3C48.5765 184.611 47.9223 189.489 47.9223 194.834C47.9223 224.926 68.3246 249.408 93.4021 249.408C102.288 249.408 110.727 246.426 118.054 240.737C125.381 246.426 133.82 249.408 142.706 249.408C167.783 249.408 188.186 224.926 188.186 194.834C188.186 189.532 187.544 184.698 186.278 180.433C190.199 169.079 192.746 156.865 193.845 144.092C195.051 130.063 194.77 117.464 193.022 106.519C200.311 105.799 208.214 102.77 215.553 97.777C223.189 92.5844 229.214 85.8663 232.516 78.8603C236.241 70.957 236.182 63.503 232.351 57.8734ZM157.867 23.077C157.319 15.1467 157.511 12.9088 160.536 10.8419C162.505 9.49649 165.837 11.1887 168.26 13.466C172.964 17.8833 176.184 25.4956 176.87 33.8274C177.633 43.0758 175.422 53.1296 170.471 63.2057C165.532 59.1234 159.837 55.8113 153.433 53.3089C159.093 40.8488 158.395 30.7273 157.867 23.077ZM59.2445 33.75C59.9445 25.441 63.1658 17.8536 67.8607 13.4539C70.2813 11.1854 73.6041 9.49938 75.5714 10.8409C78.5966 12.9078 78.7874 15.1447 78.2387 23.0731C77.7117 30.6952 77.0163 40.7763 82.6157 53.1795C76.1899 55.6613 70.4828 58.9551 65.5469 63.0202C60.6455 52.9777 58.468 42.9621 59.2445 33.75ZM45.1695 96.3158C39.363 95.989 32.5822 93.4743 26.3611 89.2383C20.3174 85.1291 15.4222 79.7408 12.9311 74.4564C10.8579 70.0581 10.625 66.1311 12.2934 63.6789C13.9604 61.2271 17.6986 60.0007 22.5518 60.3149C28.3807 60.6924 35.1909 63.2673 41.2359 67.3805C45.8752 70.537 49.7882 74.3826 52.5045 78.4077C49.4065 83.6981 46.951 89.6975 45.1695 96.3158ZM183.556 143.206C182.826 151.688 181.417 159.894 179.354 167.723C176.444 164.451 172.834 161.796 168.532 159.792C165.948 158.587 162.876 159.707 161.672 162.291C160.468 164.876 161.586 167.947 164.172 169.151C170.006 171.87 173.862 176.098 175.961 182.08C177.221 185.662 177.86 189.953 177.86 194.834C177.86 219.233 162.09 239.083 142.705 239.083C135.039 239.083 127.742 236.007 121.606 230.19C119.614 228.302 116.493 228.302 114.501 230.19C108.365 236.008 101.069 239.083 93.4018 239.083C74.0181 239.083 58.2472 219.233 58.2472 194.834C58.2472 189.96 58.889 185.666 60.149 182.069C60.1869 181.968 60.2271 181.869 60.2587 181.766C64.3384 170.594 74.8764 165.385 93.4011 165.385C97.4994 165.385 101.265 165.653 104.595 166.181C113.525 167.594 122.581 167.594 131.513 166.181C133.621 165.847 135.913 165.614 138.325 165.492C141.173 165.348 143.365 162.922 143.219 160.074C143.074 157.226 140.64 155.032 137.801 155.18C135.023 155.321 132.363 155.592 129.897 155.983C122.037 157.226 114.067 157.226 106.211 155.983C102.349 155.37 98.0394 155.059 93.4011 155.059C82.891 155.059 74.4647 156.596 67.6419 159.759C63.3314 161.758 59.712 164.408 56.7926 167.677C54.7109 159.853 53.2933 151.662 52.566 143.206C51.2075 127.414 51.7845 113.715 54.2839 102.482C56.0976 94.2807 58.9858 87.1509 62.8775 81.2752C64.3856 78.981 66.0813 76.8361 67.9295 74.889C73.9107 68.5414 81.8046 63.9024 91.3899 61.1004C99.0168 58.8713 107.912 57.7414 117.827 57.7414C127.885 57.7414 136.906 58.9039 144.637 61.1968C154.188 64.0314 162.073 68.699 168.088 75.0849C168.804 75.8391 169.497 76.6252 170.15 77.421C171.211 78.7139 172.213 80.0744 173.14 81.4781C177.003 87.2943 179.9 94.3668 181.747 102.497C184.301 113.766 184.91 127.463 183.556 143.206ZM223.175 74.4574C220.684 79.7418 215.789 85.1291 209.743 89.2403C203.462 93.5158 196.648 96.0352 190.84 96.3295C189.037 89.7631 186.575 83.8118 183.492 78.5716C186.217 74.482 190.168 70.5796 194.87 67.3825C200.915 63.2692 207.725 60.6944 213.554 60.3166C218.408 60.004 222.145 61.2291 223.813 63.6819C225.482 66.1311 225.249 70.0591 223.175 74.4574Z" fill="white"/>
<path d="M153.473 155.691C152.935 155.623 152.392 155.561 151.846 155.504C149.008 155.207 146.472 157.269 146.178 160.105C145.883 162.941 147.943 165.479 150.779 165.773C151.247 165.822 151.713 165.876 152.175 165.935C152.395 165.962 152.614 165.976 152.83 165.976C155.393 165.976 157.616 164.07 157.946 161.461C158.303 158.633 156.301 156.05 153.473 155.691Z" fill="white"/>
<path d="M91.1668 178.213C82.2416 178.213 74.9802 185.474 74.9802 194.399C74.9802 203.324 82.2413 210.585 91.1668 210.585C100.092 210.585 107.352 203.324 107.352 194.399C107.352 185.473 100.091 178.213 91.1668 178.213ZM91.1668 200.259C87.9351 200.259 85.306 197.63 85.306 194.399C85.306 191.167 87.9351 188.539 91.1668 188.539C94.3984 188.539 97.0269 191.168 97.0269 194.399C97.0269 197.63 94.3978 200.259 91.1668 200.259Z" fill="white"/>
<path d="M144.94 178.213C136.015 178.213 128.754 185.474 128.754 194.399C128.754 203.324 136.015 210.585 144.94 210.585C153.866 210.585 161.126 203.324 161.126 194.399C161.126 185.473 153.865 178.213 144.94 178.213ZM144.94 200.259C141.709 200.259 139.08 197.63 139.08 194.399C139.08 191.167 141.709 188.539 144.94 188.539C148.172 188.539 150.801 191.168 150.801 194.399C150.8 197.63 148.172 200.259 144.94 200.259Z" fill="white"/>
<path d="M79.0635 113.953C76.2119 113.953 73.9004 116.265 73.9004 119.116V122.27C73.9004 125.122 76.2119 127.433 79.0635 127.433C81.9154 127.433 84.2266 125.122 84.2266 122.27V119.116C84.2262 116.265 81.9147 113.953 79.0635 113.953Z" fill="white"/>
<path d="M157.043 113.953C154.192 113.953 151.88 116.265 151.88 119.116V122.27C151.88 125.122 154.192 127.433 157.043 127.433C159.894 127.433 162.206 125.122 162.206 122.27V119.116C162.206 116.265 159.895 113.953 157.043 113.953Z" fill="white"/>
<path d="M301.498 78.5071C304.903 78.5071 307.936 79.2254 310.596 80.662C313.257 82.0454 315.358 84.1471 316.901 86.9671C318.445 89.787 319.216 93.2189 319.216 97.2626V123.041H312.033V98.3002C312.033 93.9372 310.942 90.6117 308.761 88.3238C306.633 85.9827 303.733 84.8122 300.061 84.8122C296.284 84.8122 293.278 86.0359 291.043 88.4835C288.808 90.8778 287.691 94.3629 287.691 98.9387V123.041H280.508V98.3002C280.508 93.9372 279.417 90.6117 277.236 88.3238C275.107 85.9827 272.208 84.8122 268.536 84.8122C264.759 84.8122 261.752 86.0359 259.518 88.4835C257.283 90.8778 256.166 94.3629 256.166 98.9387V123.041H248.903V79.3052H256.166V85.6103C257.602 83.3224 259.518 81.5665 261.912 80.3428C264.36 79.119 267.046 78.5071 269.973 78.5071C273.644 78.5071 276.89 79.3318 279.71 80.9813C282.53 82.6307 284.631 85.0516 286.015 88.244C287.239 85.158 289.26 82.7637 292.08 81.0611C294.9 79.3584 298.04 78.5071 301.498 78.5071ZM334.882 72.2021C333.499 72.2021 332.327 71.7232 331.369 70.7655C330.411 69.8078 329.933 68.6372 329.933 67.2538C329.933 65.8705 330.411 64.6999 331.369 63.7422C332.327 62.7844 333.499 62.3056 334.882 62.3056C336.212 62.3056 337.33 62.7844 338.234 63.7422C339.192 64.6999 339.671 65.8705 339.671 67.2538C339.671 68.6372 339.192 69.8078 338.234 70.7655C337.33 71.7232 336.212 72.2021 334.882 72.2021ZM338.394 79.3052V123.041H331.13V79.3052H338.394ZM358.034 63.9816V123.041H350.771V63.9816H358.034ZM394.833 123.041L377.674 103.727V123.041H370.411V63.9816H377.674V98.6992L394.514 79.3052H404.65L384.059 101.094L404.73 123.041H394.833Z" fill="white"/>
<path d="M277.432 240.576C270.473 240.576 264.276 239.384 258.843 237.001C253.409 234.618 249.119 231.377 245.973 227.278C242.827 223.083 241.064 218.412 240.682 213.264H264.848C265.134 216.029 266.421 218.269 268.709 219.985C270.997 221.701 273.809 222.559 277.146 222.559C280.196 222.559 282.532 221.987 284.153 220.843C285.868 219.603 286.726 218.03 286.726 216.124C286.726 213.836 285.535 212.168 283.152 211.119C280.768 209.975 276.907 208.736 271.569 207.401C265.849 206.067 261.083 204.684 257.27 203.255C253.456 201.729 250.168 199.394 247.403 196.248C244.639 193.006 243.256 188.669 243.256 183.235C243.256 178.66 244.496 174.513 246.974 170.795C249.548 166.982 253.266 163.979 258.128 161.786C263.085 159.594 268.948 158.497 275.716 158.497C285.726 158.497 293.59 160.976 299.31 165.933C305.125 170.89 308.462 177.468 309.32 185.666H286.726C286.345 182.902 285.106 180.709 283.009 179.089C281.007 177.468 278.337 176.658 275.001 176.658C272.141 176.658 269.949 177.23 268.423 178.374C266.898 179.422 266.135 180.9 266.135 182.806C266.135 185.094 267.327 186.81 269.71 187.954C272.189 189.098 276.002 190.242 281.15 191.386C287.06 192.911 291.874 194.436 295.592 195.962C299.31 197.392 302.551 199.775 305.316 203.112C308.176 206.353 309.653 210.738 309.749 216.267C309.749 220.938 308.414 225.133 305.745 228.85C303.171 232.473 299.405 235.333 294.448 237.43C289.586 239.527 283.914 240.576 277.432 240.576ZM369.181 218.698V239.432H356.74C347.875 239.432 340.961 237.287 336.006 232.997C331.048 228.612 328.569 221.51 328.569 211.691V179.946H318.845V159.641H328.569V140.194H353.023V159.641H369.038V179.946H353.023V211.977C353.023 214.36 353.595 216.076 354.738 217.125C355.882 218.173 357.788 218.698 360.458 218.698H369.181ZM377.937 199.394C377.937 191.195 379.463 183.998 382.513 177.802C385.658 171.605 389.902 166.839 395.239 163.502C400.58 160.166 406.536 158.497 413.113 158.497C418.74 158.497 423.648 159.641 427.842 161.929C432.132 164.217 435.42 167.22 437.708 170.938V159.641H462.16V239.432H437.708V228.135C435.327 231.853 431.989 234.856 427.699 237.144C423.505 239.432 418.597 240.576 412.97 240.576C406.489 240.576 400.58 238.908 395.239 235.571C389.902 232.139 385.658 227.325 382.513 221.129C379.463 214.837 377.937 207.592 377.937 199.394ZM437.708 199.537C437.708 193.435 435.992 188.622 432.561 185.094C429.225 181.567 425.125 179.803 420.263 179.803C415.401 179.803 411.254 181.567 407.823 185.094C404.487 188.526 402.818 193.292 402.818 199.394C402.818 205.495 404.487 210.357 407.823 213.979C411.254 217.506 415.401 219.27 420.263 219.27C425.125 219.27 429.225 217.506 432.561 213.979C435.992 210.452 437.708 205.638 437.708 199.537ZM504.304 172.94C507.163 168.555 510.738 165.123 515.028 162.644C519.318 160.07 524.083 158.783 529.328 158.783V184.665H522.607C516.505 184.665 511.929 186 508.879 188.669C505.83 191.243 504.304 195.819 504.304 202.397V239.432H479.852V159.641H504.304V172.94Z" fill="white"/>
</g>
<defs>
<clipPath id="clip0">
<rect width="562" height="249.408" fill="white"/>
</clipPath>
</defs>
</svg>
