<svg width="129" height="60" viewBox="0 0 129 60" fill="none" xmlns="http://www.w3.org/2000/svg">
<path d="M56.2273 13.9226C55.3003 12.5673 53.6277 11.8954 51.5172 12.0314C49.6472 12.1518 47.5996 12.9063 45.752 14.1561C45.008 14.659 44.3227 15.227 43.7178 15.8367C44.9585 13.159 45.5012 10.4617 45.2917 7.9337C45.0726 5.29405 44.029 2.92301 42.4282 1.42863C40.8236 -0.0693755 38.8653 -0.411563 37.439 0.556991C35.4452 1.91109 35.5797 3.84866 35.7099 5.72261C35.8344 7.51545 35.9736 9.52465 34.722 12.0782C32.8605 11.633 30.7782 11.4068 28.5136 11.4068C26.2859 11.4068 24.2366 11.6258 22.4037 12.0566C21.1627 9.51265 21.3017 7.5096 21.426 5.72202C21.5563 3.84843 21.691 1.91097 19.6969 0.556639C18.2508 -0.42457 16.341 -0.0924612 14.7133 1.42394C13.1148 2.91316 12.07 5.27729 11.8469 7.91049C11.632 10.4449 12.1739 13.1514 13.4186 15.8374C12.8137 15.2277 12.1285 14.6592 11.3847 14.1561C9.53678 12.9063 7.48919 12.1516 5.61913 12.0313C3.50884 11.8946 1.83634 12.567 0.909329 13.9221C-0.0180384 15.2768 -0.0321842 17.0698 0.869487 18.9712C1.66884 20.6567 3.12655 22.2729 4.97385 23.5217C6.73971 24.7169 8.64787 25.4441 10.4121 25.6212C9.9933 28.2525 9.93407 31.2274 10.2313 34.6641C10.4959 37.72 11.1139 40.6477 12.0679 43.3746C11.7552 44.4118 11.5969 45.5854 11.5969 46.871C11.5969 54.1104 16.5341 60 22.6027 60C24.7529 60 26.7953 59.2825 28.5682 57.9139C30.3413 59.2826 32.3836 60 34.5338 60C40.6023 60 45.5397 54.1104 45.5397 46.871C45.5397 45.5957 45.3844 44.4327 45.0779 43.4067C46.0269 40.6752 46.6431 37.7369 46.9091 34.664C47.2011 31.2891 47.133 28.2582 46.7101 25.6251C48.4738 25.452 50.3864 24.7234 52.1622 23.5222C54.0101 22.273 55.4681 20.6568 56.2673 18.9714C57.1687 17.0701 57.1545 15.2769 56.2273 13.9226ZM38.2028 5.55163C38.0701 3.64382 38.1165 3.10546 38.8486 2.60824C39.3252 2.28457 40.1313 2.69168 40.7178 3.23953C41.8561 4.30218 42.6352 6.13346 42.8014 8.13785C42.9859 10.3627 42.451 12.7814 41.2527 15.2054C40.0576 14.2233 38.6794 13.4265 37.1298 12.8245C38.4995 9.82697 38.3306 7.39205 38.2028 5.55163ZM14.3368 8.11921C14.5062 6.12034 15.2857 4.29503 16.4218 3.2366C17.0076 2.69085 17.8117 2.28527 18.2878 2.60801C19.0198 3.10523 19.066 3.64335 18.9332 5.55069C18.8058 7.38433 18.6374 9.80953 19.9924 12.7934C18.4375 13.3904 17.0564 14.1828 15.8619 15.1607C14.6758 12.7448 14.1489 10.3354 14.3368 8.11921ZM10.9307 23.1706C9.52559 23.092 7.88468 22.487 6.37923 21.468C4.91669 20.4794 3.7321 19.1832 3.12926 17.9119C2.62756 16.8538 2.57121 15.9091 2.97495 15.3192C3.37834 14.7294 4.28296 14.4343 5.4574 14.5099C6.86796 14.6007 8.51597 15.2202 9.97882 16.2097C11.1015 16.969 12.0484 17.8942 12.7057 18.8625C11.956 20.1352 11.3618 21.5785 10.9307 23.1706ZM44.4193 34.451C44.2426 36.4915 43.9016 38.4657 43.4024 40.349C42.6982 39.5619 41.8245 38.9233 40.7836 38.4411C40.1582 38.1511 39.4149 38.4206 39.1235 39.0422C38.8321 39.664 39.1028 40.4029 39.7284 40.6926C41.1404 41.3467 42.0734 42.3638 42.5812 43.803C42.8861 44.6646 43.0408 45.6968 43.0408 46.871C43.0408 52.7407 39.2247 57.516 34.5337 57.516C32.6784 57.516 30.9128 56.7762 29.4277 55.3767C28.9458 54.9224 28.1906 54.9224 27.7085 55.3767C26.2235 56.7763 24.4579 57.516 22.6026 57.516C17.9119 57.516 14.0954 52.7407 14.0954 46.871C14.0954 45.6986 14.2507 44.6656 14.5557 43.8002C14.5648 43.776 14.5746 43.7521 14.5822 43.7273C15.5695 41.0396 18.1196 39.7866 22.6024 39.7866C23.5942 39.7866 24.5054 39.851 25.3113 39.9781C27.4724 40.3181 29.6637 40.3181 31.8253 39.9781C32.3353 39.8976 32.8899 39.8418 33.4737 39.8124C34.1629 39.7776 34.6932 39.194 34.6581 38.5089C34.623 37.8238 34.0339 37.2959 33.347 37.3315C32.6747 37.3654 32.0309 37.4306 31.4341 37.5247C29.5322 37.8237 27.6035 37.8237 25.7023 37.5247C24.7678 37.3772 23.7249 37.3025 22.6024 37.3025C20.0591 37.3025 18.02 37.6723 16.3689 38.4332C15.3258 38.914 14.4499 39.5515 13.7434 40.338C13.2397 38.4558 12.8966 36.4853 12.7206 34.451C12.3919 30.652 12.5315 27.3563 13.1363 24.654C13.5753 22.681 14.2742 20.9658 15.2159 19.5523C15.5809 19.0004 15.9912 18.4844 16.4385 18.016C17.8859 16.489 19.7962 15.373 22.1157 14.6989C23.9614 14.1626 26.1139 13.8908 28.5134 13.8908C30.9474 13.8908 33.1303 14.1705 35.0011 14.7221C37.3124 15.404 39.2206 16.5269 40.676 18.0631C40.8493 18.2446 41.0171 18.4337 41.1751 18.6251C41.4319 18.9362 41.6745 19.2634 41.8986 19.6011C42.8334 21.0003 43.5345 22.7018 43.9816 24.6576C44.5996 27.3687 44.7469 30.6637 44.4193 34.451ZM54.0068 17.9122C53.4039 19.1834 52.2195 20.4794 50.7564 21.4685C49.2364 22.497 47.5875 23.1031 46.1819 23.1739C45.7456 21.5942 45.1499 20.1626 44.4039 18.9019C45.0632 17.9181 46.0193 16.9793 47.1571 16.2102C48.6201 15.2206 50.268 14.6012 51.6785 14.5103C52.8532 14.4351 53.7576 14.7298 54.1611 15.3199C54.5651 15.9091 54.5088 16.8541 54.0068 17.9122Z" fill="#1BACCC"/>
<path d="M37.1394 37.4545C37.0093 37.4381 36.8779 37.4232 36.7458 37.4094C36.059 37.3381 35.4453 37.8341 35.3741 38.5164C35.3027 39.1985 35.8013 39.8091 36.4875 39.88C36.6008 39.8917 36.7136 39.9046 36.8252 39.9188C36.8786 39.9254 36.9315 39.9287 36.9839 39.9287C37.604 39.9287 38.1419 39.4702 38.2218 38.8426C38.3084 38.1621 37.8237 37.5407 37.1394 37.4545Z" fill="#1BACCC"/>
<path d="M22.0618 42.8725C19.9019 42.8725 18.1447 44.6193 18.1447 46.7664C18.1447 48.9135 19.9019 50.6604 22.0618 50.6604C24.2217 50.6604 25.9786 48.9136 25.9786 46.7664C25.9786 44.6192 24.2214 42.8725 22.0618 42.8725ZM22.0618 48.1762C21.2797 48.1762 20.6435 47.5438 20.6435 46.7664C20.6435 45.9889 21.2797 45.3566 22.0618 45.3566C22.8438 45.3566 23.4799 45.9891 23.4799 46.7664C23.4799 47.5438 22.8436 48.1762 22.0618 48.1762Z" fill="#1BACCC"/>
<path d="M35.0746 42.8725C32.9148 42.8725 31.1575 44.6193 31.1575 46.7664C31.1575 48.9135 32.9146 50.6604 35.0746 50.6604C37.2345 50.6604 38.9914 48.9136 38.9914 46.7664C38.9914 44.6192 37.2343 42.8725 35.0746 42.8725ZM35.0746 48.1762C34.2926 48.1762 33.6563 47.5438 33.6563 46.7664C33.6563 45.9889 34.2926 45.3566 35.0746 45.3566C35.8566 45.3566 36.4927 45.9891 36.4927 46.7664C36.4925 47.5438 35.8566 48.1762 35.0746 48.1762Z" fill="#1BACCC"/>
<path d="M19.1328 27.4136C18.4427 27.4136 17.8834 27.9697 17.8834 28.6557V29.4144C17.8834 30.1004 18.4427 30.6564 19.1328 30.6564C19.8229 30.6564 20.3822 30.1004 20.3822 29.4144V28.6557C20.3821 27.9697 19.8228 27.4136 19.1328 27.4136Z" fill="#1BACCC"/>
<path d="M38.0033 27.4136C37.3134 27.4136 36.7539 27.9697 36.7539 28.6557V29.4144C36.7539 30.1004 37.3134 30.6564 38.0033 30.6564C38.6932 30.6564 39.2528 30.1004 39.2528 29.4144V28.6557C39.2528 27.9697 38.6934 27.4136 38.0033 27.4136Z" fill="#1BACCC"/>
<path d="M72.9605 18.8864C73.7845 18.8864 74.5184 19.0592 75.1622 19.4048C75.806 19.7376 76.3146 20.2432 76.688 20.9216C77.0614 21.6 77.2481 22.4256 77.2481 23.3984V29.6H75.5098V23.648C75.5098 22.5984 75.2459 21.7984 74.718 21.248C74.203 20.6848 73.5012 20.4032 72.6128 20.4032C71.6986 20.4032 70.9711 20.6976 70.4304 21.2864C69.8896 21.8624 69.6192 22.7008 69.6192 23.8016V29.6H67.881V23.648C67.881 22.5984 67.617 21.7984 67.0891 21.248C66.5741 20.6848 65.8724 20.4032 64.9839 20.4032C64.0698 20.4032 63.3423 20.6976 62.8015 21.2864C62.2607 21.8624 61.9903 22.7008 61.9903 23.8016V29.6H60.2328V19.0784H61.9903V20.5952C62.338 20.0448 62.8015 19.6224 63.3809 19.328C63.9732 19.0336 64.6234 18.8864 65.3316 18.8864C66.22 18.8864 67.0054 19.0848 67.6878 19.4816C68.3703 19.8784 68.8788 20.4608 69.2136 21.2288C69.5098 20.4864 69.999 19.9104 70.6814 19.5008C71.3639 19.0912 72.1235 18.8864 72.9605 18.8864ZM81.0392 17.3696C80.7044 17.3696 80.4208 17.2544 80.189 17.024C79.9573 16.7936 79.8414 16.512 79.8414 16.1792C79.8414 15.8464 79.9573 15.5648 80.189 15.3344C80.4208 15.104 80.7044 14.9888 81.0392 14.9888C81.3611 14.9888 81.6315 15.104 81.8503 15.3344C82.0821 15.5648 82.198 15.8464 82.198 16.1792C82.198 16.512 82.0821 16.7936 81.8503 17.024C81.6315 17.2544 81.3611 17.3696 81.0392 17.3696ZM81.889 19.0784V29.6H80.1311V19.0784H81.889ZM86.6417 15.392V29.6H84.8842V15.392H86.6417ZM95.5469 29.6L91.3945 24.9536V29.6H89.6369V15.392H91.3945V23.744L95.4697 19.0784H97.9225L92.9396 24.32L97.9418 29.6H95.5469Z" fill="#1BACCC"/>
<path d="M67.1366 57.8752C65.4525 57.8752 63.9531 57.5886 62.6381 57.0152C61.3232 56.4418 60.2851 55.6622 59.5238 54.676C58.7625 53.667 58.3358 52.5432 58.2435 51.3048H64.0915C64.1607 51.9698 64.4721 52.5088 65.0258 52.9216C65.5794 53.3344 66.26 53.5408 67.0674 53.5408C67.8056 53.5408 68.3708 53.4032 68.7629 53.128C69.1782 52.8299 69.3858 52.4514 69.3858 51.9928C69.3858 51.4424 69.0975 51.041 68.5207 50.7888C67.944 50.5136 67.0097 50.2155 65.7178 49.8944C64.3337 49.5734 63.1803 49.2408 62.2575 48.8968C61.3347 48.5298 60.5388 47.968 59.8698 47.2112C59.2009 46.4314 58.8663 45.388 58.8663 44.0808C58.8663 42.98 59.1663 41.9824 59.766 41.088C60.3889 40.1707 61.2886 39.4483 62.4651 38.9208C63.6647 38.3934 65.0835 38.1296 66.7213 38.1296C69.1436 38.1296 71.0468 38.7258 72.4309 39.9184C73.8382 41.111 74.6455 42.6934 74.8532 44.6656H69.3858C69.2935 44.0006 68.9937 43.4731 68.4861 43.0832C68.0017 42.6934 67.3557 42.4984 66.5483 42.4984C65.8562 42.4984 65.3257 42.636 64.9566 42.9112C64.5874 43.1635 64.4029 43.519 64.4029 43.9776C64.4029 44.528 64.6912 44.9408 65.268 45.216C65.8678 45.4912 66.7905 45.7664 68.0363 46.0416C69.4665 46.4086 70.6315 46.7755 71.5312 47.1424C72.4309 47.4864 73.2153 48.0598 73.8843 48.8624C74.5763 49.6422 74.9339 50.697 74.957 52.0272C74.957 53.151 74.634 54.16 73.9881 55.0544C73.3652 55.9259 72.454 56.6139 71.2544 57.1184C70.0779 57.623 68.7052 57.8752 67.1366 57.8752ZM89.3392 52.612V57.6H86.3287C84.1833 57.6 82.5102 57.084 81.3112 56.052C80.1112 54.9971 79.5114 53.2886 79.5114 50.9264V43.2896H77.1583V38.4048H79.5114V33.7264H85.429V38.4048H89.3046V43.2896H85.429V50.9952C85.429 51.5686 85.5674 51.9814 85.8442 52.2336C86.1211 52.4859 86.5822 52.612 87.2284 52.612H89.3392ZM91.458 47.968C91.458 45.9958 91.8274 44.2642 92.5654 42.7736C93.3266 41.283 94.3535 40.1362 95.6451 39.3336C96.9375 38.531 98.3787 38.1296 99.9705 38.1296C101.332 38.1296 102.52 38.4048 103.535 38.9552C104.573 39.5056 105.369 40.228 105.922 41.1224V38.4048H111.84V57.6H105.922V54.8824C105.346 55.7768 104.538 56.4992 103.5 57.0496C102.485 57.6 101.298 57.8752 99.9359 57.8752C98.3675 57.8752 96.9375 57.4738 95.6451 56.6712C94.3535 55.8456 93.3266 54.6875 92.5654 53.1968C91.8274 51.6832 91.458 49.9403 91.458 47.968ZM105.922 48.0024C105.922 46.5346 105.507 45.3766 104.677 44.528C103.869 43.6795 102.877 43.2552 101.701 43.2552C100.524 43.2552 99.5207 43.6795 98.6902 44.528C97.883 45.3536 97.4791 46.5002 97.4791 47.968C97.4791 49.4358 97.883 50.6054 98.6902 51.4768C99.5207 52.3254 100.524 52.7496 101.701 52.7496C102.877 52.7496 103.869 52.3254 104.677 51.4768C105.507 50.6283 105.922 49.4702 105.922 48.0024ZM122.038 41.604C122.73 40.5491 123.595 39.7235 124.633 39.1272C125.671 38.508 126.824 38.1984 128.094 38.1984V44.4248H126.467C124.99 44.4248 123.883 44.7459 123.145 45.388C122.407 46.0072 122.038 47.108 122.038 48.6904V57.6H116.121V38.4048H122.038V41.604Z" fill="#1BACCC"/>
</svg>
