<svg width="150" height="150" viewBox="0 0 150 150" fill="none" xmlns="http://www.w3.org/2000/svg">
<rect opacity="0.15" x="1" y="1" width="148" height="148" rx="14" stroke="#1BACCC" stroke-width="2"/>
<rect opacity="0.15" x="15" y="15" width="120" height="120" rx="15" fill="#1BACCC"/>
<path d="M88.9985 67C88.9985 69.7689 88.1774 72.4757 86.6391 74.778C85.1007 77.0803 82.9142 78.8747 80.356 79.9343C77.7979 80.994 74.9829 81.2712 72.2672 80.731C69.5515 80.1908 67.0569 78.8574 65.099 76.8995C63.141 74.9416 61.8077 72.447 61.2675 69.7313C60.7273 67.0155 61.0045 64.2006 62.0642 61.6424C63.1238 59.0843 64.9182 56.8978 67.2205 55.3594C69.5228 53.8211 72.2295 53 74.9985 53C78.7102 53.0042 82.2688 54.4805 84.8934 57.1051C87.518 59.7297 88.9943 63.2883 88.9985 67ZM96.9985 67C96.9991 70.2415 96.2822 73.443 94.8994 76.3748C93.5165 79.3065 91.5018 81.8959 89 83.957V103C89 103.341 88.9129 103.676 88.7469 103.974C88.5809 104.272 88.3415 104.522 88.0515 104.701C87.7616 104.881 87.4306 104.983 87.09 104.998C86.7495 105.013 86.4107 104.941 86.1057 104.789L74.9982 99.236L63.8945 104.789C63.5896 104.941 63.2507 105.013 62.9102 104.998C62.5696 104.983 62.2386 104.881 61.9486 104.701C61.6586 104.522 61.4192 104.272 61.2532 103.974C61.0871 103.676 61 103.341 61 103V83.9593C58.1418 81.5999 55.9261 78.5567 54.5586 75.112C53.1911 71.6674 52.7161 67.933 53.1778 64.2558C53.6395 60.5785 55.0229 57.0774 57.1995 54.0778C59.3761 51.0781 62.2754 48.6771 65.6281 47.0976C68.9809 45.518 72.6784 44.8113 76.3773 45.0429C80.0762 45.2746 83.6566 46.4371 86.7861 48.4226C89.9156 50.408 92.4926 53.152 94.278 56.3998C96.0634 59.6476 96.9992 63.2938 96.9985 67ZM92.9985 67C92.9985 63.4399 91.9428 59.9598 89.9649 56.9997C87.9871 54.0397 85.1758 51.7326 81.8868 50.3702C78.5977 49.0078 74.9785 48.6513 71.4868 49.3459C67.9952 50.0404 64.7879 51.7547 62.2706 54.2721C59.7532 56.7894 58.0389 59.9967 57.3443 63.4884C56.6498 66.98 57.0063 70.5992 58.3686 73.8883C59.731 77.1774 62.0381 79.9886 64.9982 81.9665C67.9583 83.9443 71.4384 85 74.9985 85C79.7707 84.9947 84.346 83.0965 87.7205 79.722C91.095 76.3475 92.9931 71.7723 92.9985 67Z" fill="#1BACCC"/>
</svg>
