<svg width="67" height="54" viewBox="0 0 67 54" fill="none" xmlns="http://www.w3.org/2000/svg">
<path d="M5.65763 46.0267C10.3343 51.0967 17.411 53.6667 26.6876 53.6667H30.021V44.2701L27.341 43.7334C22.7743 42.8201 19.5976 41.0234 17.8976 38.3867C17.0106 36.9663 16.5075 35.3399 16.4376 33.6667H26.6876C27.5717 33.6667 28.4195 33.3156 29.0447 32.6904C29.6698 32.0653 30.021 31.2175 30.021 30.3334V7.00008C30.021 3.32341 27.031 0.333412 23.3543 0.333412H3.35429C2.47024 0.333412 1.62239 0.684601 0.99727 1.30972C0.372149 1.93484 0.0209594 2.78269 0.0209594 3.66674V20.3334L0.0309595 30.0634C0.000959508 30.4334 -0.632374 39.2001 5.65763 46.0267ZM60.021 0.333412H40.021C39.1369 0.333412 38.2891 0.684601 37.6639 1.30972C37.0388 1.93484 36.6876 2.78269 36.6876 3.66674V20.3334L36.6976 30.0634C36.6676 30.4334 36.0343 39.2001 42.3243 46.0267C47.001 51.0967 54.0776 53.6667 63.3543 53.6667H66.6876V44.2701L64.0076 43.7334C59.441 42.8201 56.2643 41.0234 54.5643 38.3867C53.6773 36.9663 53.1742 35.3399 53.1043 33.6667H63.3543C64.2384 33.6667 65.0862 33.3156 65.7113 32.6904C66.3364 32.0653 66.6876 31.2175 66.6876 30.3334V7.00008C66.6876 3.32341 63.6976 0.333412 60.021 0.333412Z" fill="white"/>
</svg>
