<svg width="48" height="48" viewBox="0 0 48 48" fill="none" xmlns="http://www.w3.org/2000/svg">
<path d="M44 24C44 18.6957 41.8929 13.6086 38.1421 9.85787C34.3914 6.10714 29.3043 4 24 4C21.3736 4 18.7728 4.51732 16.3463 5.52241C13.9198 6.5275 11.715 8.00069 9.85786 9.85787C8.00069 11.715 6.5275 13.9198 5.5224 16.3463C4.51731 18.7728 4 21.3736 4 24C4 29.3043 6.10713 34.3914 9.85786 38.1421C13.6086 41.8929 18.6957 44 24 44C26.6264 44 29.2272 43.4827 31.6537 42.4776C34.0802 41.4725 36.285 39.9993 38.1421 38.1421C41.8929 34.3914 44 29.3043 44 24V24ZM14 24L24 14V20H32V28H24V34L14 24Z" fill="#1BACCC"/>
</svg>
