<svg width="48" height="48" viewBox="0 0 48 48" fill="none" xmlns="http://www.w3.org/2000/svg">
<path d="M4 24C4 18.6957 6.10714 13.6086 9.85787 9.85787C13.6086 6.10714 18.6957 4 24 4C26.6264 4 29.2272 4.51732 31.6537 5.52241C34.0802 6.5275 36.285 8.00069 38.1421 9.85787C39.9993 11.715 41.4725 13.9198 42.4776 16.3463C43.4827 18.7728 44 21.3736 44 24C44 29.3043 41.8929 34.3914 38.1421 38.1421C34.3914 41.8929 29.3043 44 24 44C21.3736 44 18.7728 43.4827 16.3463 42.4776C13.9198 41.4725 11.715 39.9993 9.85787 38.1421C6.10714 34.3914 4 29.3043 4 24V24ZM34 24L24 14V20H16V28H24V34L34 24Z" fill="#1BACCC"/>
</svg>
