<svg id="Capa_1" enable-background="new 0 0 512 512" height="512" viewBox="0 0 512 512" width="512" xmlns="http://www.w3.org/2000/svg"><g><path d="m86.482 376.5c0-2.348.121-4.666.309-6.967h-22.252c-30.419 0-55.166 24.748-55.166 55.167v72.3c0 8.284 6.715 15 15 15h64.689c-1.666-4.695-2.58-9.742-2.58-15z"/><path d="m193.594 328.3c0-2.348.121-4.667.309-6.967h-22.253c-30.42 0-55.168 24.748-55.168 55.167v120.5c0 8.284 6.715 15 15 15h64.691c-1.666-4.695-2.58-9.742-2.58-15v-168.7z"/><path d="m412.65 232.349h-26.779c-30.419 0-55.166 24.748-55.166 55.167v209.484c0 8.284 6.715 15 15 15h107.109c8.283 0 15-6.716 15-15v-209.484c.001-30.419-24.747-55.167-55.164-55.167z"/><path d="m300.705 287.516c0-4.903.439-9.703 1.238-14.382h-23.183c-30.419 0-55.166 24.747-55.166 55.166v168.7c0 8.284 6.715 15 15 15h64.691c-1.666-4.695-2.58-9.742-2.58-15z"/><path d="m501.893 74.565c-1.765-5.43-6.459-9.388-12.109-10.208l-53.255-7.737-23.819-48.259c-2.526-5.12-7.741-8.361-13.451-8.361s-10.924 3.241-13.45 8.361l-23.817 48.259-53.255 7.737c-5.65.82-10.345 4.778-12.108 10.208-1.766 5.43-.294 11.391 3.795 15.377l38.535 37.565-9.098 53.038c-.965 5.628 1.349 11.315 5.968 14.671 4.619 3.357 10.743 3.798 15.796 1.143l47.635-25.04 47.635 25.04c2.195 1.153 4.591 1.723 6.978 1.723h.057c8.268-.018 14.965-6.727 14.965-15 0-1.151-.13-2.273-.376-3.352l-8.958-52.223 38.536-37.565c4.089-3.985 5.559-9.946 3.796-15.377z"/></g></svg>